<?xml version="1.0" ?><svg width="48px" height="48px" viewBox="0 0 48 48" data-name="Layer 1" id="Layer_1" xmlns="http://www.w3.org/2000/svg"><defs><style>.cls-1{fill:#55aae1;}.cls-2{opacity:0.35;}</style></defs><title/><path class="cls-1" d="M36,44H12a3,3,0,0,1-3-3V12a1,1,0,0,1,1-1H38a1,1,0,0,1,1,1V41A3,3,0,0,1,36,44ZM11,13V41a1,1,0,0,0,1,1H36a1,1,0,0,0,1-1V13Z"/><g class="cls-2"><path class="cls-1" d="M35,12V38a2,2,0,0,1-2,2H10v1a2,2,0,0,0,2,2H36a2,2,0,0,0,2-2V12Z"/></g><path class="cls-1" d="M43,13H5a1,1,0,0,1,0-2H43a1,1,0,0,1,0,2Z"/><path class="cls-1" d="M17,35a1,1,0,0,1-1-1V20a1,1,0,0,1,2,0V34A1,1,0,0,1,17,35Z"/><path class="cls-1" d="M31,35a1,1,0,0,1-1-1V20a1,1,0,0,1,2,0V34A1,1,0,0,1,31,35Z"/><path class="cls-1" d="M24,37a1,1,0,0,1-1-1V18a1,1,0,0,1,2,0V36A1,1,0,0,1,24,37Z"/><path class="cls-1" d="M33,13H15a1,1,0,0,1-1-1V7a3,3,0,0,1,3-3H31a3,3,0,0,1,3,3v5A1,1,0,0,1,33,13ZM16,11H32V7a1,1,0,0,0-1-1H17a1,1,0,0,0-1,1Z"/></svg>