<?xml version="1.0" encoding="iso-8859-1"?>
<!-- Generator: Adobe Illustrator 19.0.0, SVG Export Plug-In . SVG Version: 6.00 Build 0)  -->
<svg version="1.1" id="Capa_1" xmlns="http://www.w3.org/2000/svg" xmlns:xlink="http://www.w3.org/1999/xlink" x="0px" y="0px"
	 viewBox="0 0 384.976 384.976" style="enable-background:new 0 0 384.976 384.976;" xml:space="preserve">
<g>
	<g id="Arrow_Dotted_Right">
		<path d="M281.576,277.792C285.979,279.56,279.964,277.118,281.576,277.792L281.576,277.792z"/>
		<path d="M200.816,381.529l84.561-84.08c6.232-5.943,4.138-16.469-3.79-19.658c-1.612-0.674-3.32-0.95-5.041-0.902H108.363
			c-10.671-0.289-16.602,12.872-8.926,20.476l84.2,84.164C188.269,386.125,196.173,386.125,200.816,381.529z M137.344,300.758
			h109.692l-54.81,55.279L137.344,300.758z"/>
		<path d="M228.281,228.576c0-19.934-16.157-36.091-36.091-36.091S156.1,208.642,156.1,228.576s16.157,36.091,36.091,36.091
			S228.281,248.51,228.281,228.576z M180.16,228.576c0-6.641,5.39-12.03,12.03-12.03c6.641,0,12.03,5.39,12.03,12.03
			c0,6.641-5.39,12.03-12.03,12.03C185.55,240.606,180.16,235.216,180.16,228.576z"/>
		<path d="M228.281,132.333c0-19.934-16.157-36.091-36.091-36.091S156.1,112.399,156.1,132.333s16.157,36.091,36.091,36.091
			S228.281,152.268,228.281,132.333z M180.16,132.333c0-6.641,5.39-12.03,12.03-12.03c6.641,0,12.03,5.39,12.03,12.03
			c0,6.641-5.39,12.03-12.03,12.03C185.55,144.364,180.16,138.974,180.16,132.333z"/>
		<path d="M228.281,36.091C228.281,16.157,212.125,0,192.191,0S156.1,16.157,156.1,36.091s16.157,36.091,36.091,36.091
			S228.281,56.025,228.281,36.091z M180.16,36.091c0-6.641,5.39-12.03,12.03-12.03c6.641,0,12.03,5.39,12.03,12.03
			s-5.39,12.03-12.03,12.03C185.55,48.121,180.16,42.732,180.16,36.091z"/>
	</g>
	<g>
	</g>
	<g>
	</g>
	<g>
	</g>
	<g>
	</g>
	<g>
	</g>
	<g>
	</g>
</g>
<g>
</g>
<g>
</g>
<g>
</g>
<g>
</g>
<g>
</g>
<g>
</g>
<g>
</g>
<g>
</g>
<g>
</g>
<g>
</g>
<g>
</g>
<g>
</g>
<g>
</g>
<g>
</g>
<g>
</g>
</svg>
