<svg width="42" height="34" viewBox="0 0 42 34" fill="none" xmlns="http://www.w3.org/2000/svg">
<path d="M25.8625 1.78694L24.6711 4.38391C24.4933 4.77143 24.208 5.09978 23.8491 5.32997C23.4902 5.56016 23.0728 5.68253 22.6464 5.68253H2.238C1.00781 5.68253 0.010498 6.67984 0.010498 7.91003V31.2723C0.010498 32.5024 1.00781 33.4998 2.238 33.4998H39.7004C40.9306 33.4998 41.9279 32.5024 41.9279 31.2723V2.71581C41.9279 1.48562 40.9306 0.488312 39.7004 0.488312H27.8872C27.4608 0.488316 27.0434 0.610679 26.6845 0.840873C26.3256 1.07107 26.0403 1.39942 25.8625 1.78694V1.78694Z" fill="#948E8C"/>
</svg>
