<?xml version="1.0" encoding="utf-8"?>

<!-- Uploaded to: SVG Repo, www.svgrepo.com, Generator: SVG Repo Mixer Tools -->
<svg version="1.1" id="Uploaded to svgrepo.com" xmlns="http://www.w3.org/2000/svg" xmlns:xlink="http://www.w3.org/1999/xlink" 
	 width="30px" height="30px" viewBox="0 0 32 32" xml:space="preserve">
<style type="text/css">
	.isometric_acht{fill:#F05A28;}
	.isometric_tien{fill:#7BD6C4;}
	.isometric_twaalf{fill:#569080;}
	.isometric_dertien{fill:#225B49;}
	.st0{fill:#FFBB33;}
	.st1{fill:#BE1E2D;}
	.st2{fill:#F29227;}
	.st3{fill:#FF7344;}
	.st4{fill:#F8F7C5;}
	.st5{fill:#F5DF89;}
	.st6{fill:#6B9086;}
	.st7{fill:none;}
	.st8{fill:#72C0AB;}
	.st9{fill:#AD9A74;}
	.st10{fill:#F2D76C;}
	.st11{fill:#F28103;}
	.st12{fill:#225B49;}
	.st13{fill:#7BD6C4;}
	.st14{fill:#F05A28;}
</style>
<g>
	<polygon class="isometric_dertien" points="28,12.819 8,8.938 8,12.453 14.722,24 18.003,19.281 25.49,23.569 27.15,22.611 
		27.15,19.095 23.972,17.261 28,16.334 	"/>
	<polygon class="isometric_tien" points="28,12.819 8,8.938 14.722,20.485 18.003,15.765 25.49,20.053 27.15,19.095 19.618,14.747 	
		"/>
	<path class="isometric_twaalf" d="M25.5,20.047v3.521h-0.01l-7.427-4.288v-3.515l7.427,4.288L25.5,20.047z M14.687,20.425L8,8.938
		v3.516L14.687,24V20.425z"/>
	<path class="isometric_acht" d="M8,12.453V8.938l10.213,1.982C17.278,7.507,9.98,6.091,5.727,8.546
		c-4.215,2.433-1.883,6.691,4.194,7.206L8,12.453z"/>
</g>
</svg>