<?xml version="1.0" encoding="iso-8859-1"?>
<!-- Uploaded to: SVG Repo, www.svgrepo.com, Generator: SVG Repo Mixer Tools -->
<svg height="30px" width="40px" version="1.1" id="Layer_1" xmlns="http://www.w3.org/2000/svg" xmlns:xlink="http://www.w3.org/1999/xlink"
	 viewBox="0 0 512.006 512.006" xml:space="preserve">
<path style="fill:#3D6DEB;" d="M214.275,97.913l18.454-18.452v409.272c0,12.853,10.42,23.273,23.273,23.273
	c12.853,0,23.273-10.42,23.273-23.273V79.459l18.454,18.452c4.544,4.544,10.501,6.817,16.455,6.817
	c5.956,0,11.913-2.271,16.455-6.817c9.089-9.089,9.089-23.824,0-32.912L272.461,6.822c-0.543-0.543-1.116-1.058-1.711-1.547
	c-0.267-0.219-0.548-0.41-0.821-0.614c-0.332-0.25-0.659-0.507-1.005-0.74c-0.334-0.223-0.681-0.417-1.022-0.622
	c-0.309-0.185-0.611-0.379-0.929-0.549c-0.352-0.188-0.712-0.348-1.071-0.517c-0.329-0.155-0.653-0.32-0.991-0.461
	c-0.351-0.144-0.709-0.262-1.064-0.389c-0.36-0.129-0.715-0.267-1.083-0.38c-0.36-0.109-0.725-0.188-1.088-0.279
	c-0.372-0.093-0.742-0.197-1.12-0.273c-0.424-0.084-0.85-0.135-1.277-0.195c-0.326-0.047-0.645-0.109-0.974-0.141
	c-1.53-0.15-3.07-0.15-4.6,0c-0.329,0.033-0.65,0.095-0.974,0.141c-0.427,0.061-0.853,0.11-1.277,0.195
	c-0.38,0.076-0.748,0.18-1.12,0.273c-0.363,0.092-0.728,0.171-1.088,0.279c-0.368,0.112-0.723,0.25-1.083,0.38
	c-0.355,0.127-0.714,0.245-1.064,0.389c-0.338,0.14-0.663,0.306-0.991,0.461c-0.358,0.169-0.72,0.329-1.072,0.517
	c-0.318,0.171-0.619,0.365-0.929,0.549c-0.343,0.205-0.689,0.399-1.022,0.622c-0.346,0.231-0.673,0.489-1.005,0.74
	c-0.273,0.205-0.554,0.396-0.821,0.614c-0.594,0.489-1.167,1.002-1.711,1.547l-58.178,58.179c-9.089,9.089-9.089,23.824,0,32.912
	C190.45,107.002,205.187,107.002,214.275,97.913z"/>
</svg>